<svg width="338" height="152" viewBox="0 0 338 152" fill="none" xmlns="http://www.w3.org/2000/svg">
<path d="M257.9 2C260.352 2 262.449 2.73333 264.189 4.2C265.93 5.66666 266.8 7.43333 266.8 9.49999C266.8 11.5667 265.93 13.3333 264.189 14.8C262.449 16.2667 260.352 17 257.9 17C255.448 17 253.351 16.2667 251.611 14.8C249.87 13.3333 249 11.5667 249 9.49999C249 7.43333 249.87 5.66666 251.611 4.2C253.351 2.73333 255.448 2 257.9 2ZM338 4.5V14.5L272.733 14.5V4.5L338 4.5Z" fill="#BDFD60"/>
<path d="M338 91.3101V101H255V96.155C255 91.4393 256.107 86.3359 258.32 80.845C260.533 75.2894 263.656 69.7339 267.687 64.1783C271.719 58.6227 276.54 53.3902 282.153 48.4806C287.686 43.5065 293.852 39.2429 300.65 35.6899H255V26H338V35.6899C330.728 35.6899 323.771 36.9173 317.131 39.3721C310.412 41.7623 304.247 44.9599 298.634 48.9651C292.943 52.9703 287.923 57.4277 283.576 62.3372C279.149 67.1822 275.552 72.124 272.786 77.1628C269.94 82.2016 268.122 86.9173 267.331 91.3101H338Z" fill="#BDFD60"/>
<path d="M131.644 52.5C131.644 59.8 130.492 66.65 128.187 73.05C125.883 79.35 122.577 84.9 118.269 89.7C114.061 94.5 109.002 98.25 103.091 100.95C97.18 103.65 90.6178 105 83.4045 105H48.3896C41.0761 105 34.4638 103.65 28.5529 100.95C22.6419 98.25 17.5325 94.5 13.2245 89.7C9.0167 84.9 5.76067 79.35 3.4564 73.05C1.15213 66.65 0 59.8 0 52.5C0 45.3 1.15213 38.55 3.4564 32.25C5.76067 25.85 9.0167 20.25 13.2245 15.45C17.5325 10.55 22.6419 6.75 28.5529 4.05C34.4638 1.35 41.0761 0 48.3896 0H87.3117C94.5251 0 97.18 1.35 103.091 4.05C109.002 6.75 114.061 10.55 118.269 15.45C122.577 20.25 125.883 25.85 128.187 32.25C130.492 38.55 131.644 45.3 131.644 52.5ZM116.231 52.5C116.231 45.6 115.263 39.3 112.558 33.6C109.954 27.9 106.147 23.4 101.137 20.1C96.2282 16.7 90.3173 15 83.4045 15H48.3896C41.4768 15 35.5158 16.7 30.5065 20.1C25.5974 23.4 21.7904 27.9 19.0853 33.6C16.3803 39.3 15.0278 45.6 15.0278 52.5C15.0278 59.4 16.3803 65.7 19.0853 71.4C21.7904 77 25.5974 81.5 30.5065 84.9C35.5158 88.3 41.4768 90 48.3896 90H83.4045C90.3173 90 96.2282 88.3 101.137 84.9C106.147 81.5 109.954 77 112.558 71.4C115.263 65.7 116.231 59.4 116.231 52.5Z" fill="#1D2710"/>
<path d="M182.288 105H167.26V52.5C167.26 45.6 165.557 39.3 162.15 33.6C158.844 27.9 154.336 23.4 148.625 20.1C142.915 16.7 136.603 15 129.69 15H121.575L106.547 15.45L87.3117 0H129.69C139.208 0 147.924 2.35 155.839 7.05C163.853 11.75 170.165 17.9 174.774 25.5C179.382 17.9 185.644 11.75 193.558 7.05C201.573 2.35 210.34 0 219.857 0H243V105H227.972V15H219.857C212.944 15 206.633 16.7 200.922 20.1C195.312 23.4 190.803 27.9 187.397 33.6C183.991 39.3 182.288 45.6 182.288 52.5V105Z" fill="#1D2710"/>
<path d="M301.366 151.758C300.125 151.758 298.919 151.57 297.748 151.196C296.601 150.821 295.548 150.212 294.588 149.37C293.628 148.503 292.82 147.333 292.165 145.858L295.08 144.207C295.899 145.682 296.8 146.748 297.784 147.403C298.767 148.059 299.996 148.386 301.471 148.386C302.899 148.386 303.976 148.07 304.702 147.438C305.451 146.806 305.825 145.94 305.825 144.84C305.825 144.184 305.662 143.61 305.334 143.119C305.029 142.627 304.479 142.171 303.683 141.749C302.887 141.328 301.764 140.942 300.312 140.59C298.486 140.122 297.058 139.549 296.028 138.87C295.021 138.167 294.319 137.371 293.921 136.482C293.523 135.569 293.324 134.585 293.324 133.532C293.324 132.221 293.628 131.085 294.237 130.125C294.845 129.142 295.723 128.381 296.871 127.843C298.018 127.281 299.376 127 300.944 127C302.817 127 304.362 127.363 305.58 128.089C306.797 128.791 307.827 129.763 308.67 131.003L305.72 132.9C304.994 132.01 304.233 131.378 303.437 131.003C302.665 130.605 301.834 130.406 300.944 130.406C299.586 130.406 298.544 130.676 297.819 131.214C297.116 131.753 296.765 132.525 296.765 133.532C296.765 134.398 297.093 135.147 297.748 135.779C298.427 136.411 299.738 136.962 301.682 137.43C303.648 137.921 305.182 138.507 306.282 139.186C307.406 139.841 308.19 140.637 308.635 141.574C309.103 142.487 309.337 143.587 309.337 144.875C309.337 146.162 309.009 147.321 308.354 148.351C307.698 149.381 306.774 150.212 305.58 150.845C304.386 151.453 302.981 151.758 301.366 151.758Z" fill="black"/>
<path d="M285.027 151.231L269.575 131.179L271.542 130.617V151.231H268.03V127.316H271.015L285.94 146.666H284.5V127.316H288.012V151.231H285.027Z" fill="black"/>
<path d="M239.247 139.291C239.247 137.512 239.551 135.873 240.16 134.375C240.792 132.876 241.67 131.577 242.793 130.477C243.917 129.376 245.228 128.522 246.727 127.913C248.248 127.304 249.899 127 251.678 127C253.434 127 255.061 127.304 256.559 127.913C258.058 128.522 259.357 129.376 260.457 130.477C261.581 131.577 262.447 132.876 263.056 134.375C263.688 135.873 264.004 137.512 264.004 139.291C264.004 141.047 263.688 142.674 263.056 144.172C262.447 145.671 261.581 146.982 260.457 148.105C259.357 149.206 258.058 150.06 256.559 150.669C255.061 151.278 253.434 151.582 251.678 151.582C249.899 151.582 248.248 151.278 246.727 150.669C245.228 150.06 243.917 149.206 242.793 148.105C241.67 146.982 240.792 145.671 240.16 144.172C239.551 142.674 239.247 141.047 239.247 139.291ZM242.829 139.291C242.829 141 243.215 142.534 243.987 143.891C244.76 145.226 245.814 146.279 247.148 147.052C248.482 147.825 249.992 148.211 251.678 148.211C253.364 148.211 254.862 147.825 256.173 147.052C257.484 146.279 258.514 145.226 259.263 143.891C260.036 142.534 260.422 141 260.422 139.291C260.422 137.559 260.036 136.025 259.263 134.691C258.514 133.356 257.484 132.303 256.173 131.53C254.862 130.758 253.364 130.371 251.678 130.371C249.992 130.371 248.482 130.758 247.148 131.53C245.814 132.303 244.76 133.356 243.987 134.691C243.215 136.025 242.829 137.559 242.829 139.291Z" fill="black"/>
<path d="M235.225 151.231H231.713V127.316H235.225V151.231Z" fill="black"/>
<path d="M217.046 151.231V129.95H220.557V151.231H217.046ZM209.566 130.617V127.316H228.389V130.617H209.566Z" fill="black"/>
<path d="M197.117 151.582C195.315 151.582 193.711 151.231 192.306 150.529C190.925 149.826 189.836 148.784 189.04 147.403C188.244 145.998 187.846 144.278 187.846 142.241V127.316H191.358V141.714C191.358 143.774 191.85 145.378 192.833 146.525C193.84 147.649 195.268 148.211 197.117 148.211C198.99 148.211 200.418 147.649 201.402 146.525C202.385 145.378 202.877 143.774 202.877 141.714V127.316H206.388V142.241C206.388 144.278 205.99 145.998 205.194 147.403C204.398 148.784 203.298 149.826 201.893 150.529C200.512 151.231 198.92 151.582 197.117 151.582Z" fill="black"/>
<path d="M184.677 151.231H170.841V127.316H174.352V148.422L173.931 147.93H184.677V151.231Z" fill="black"/>
<path d="M142.057 139.291C142.057 137.512 142.361 135.873 142.97 134.375C143.602 132.876 144.48 131.577 145.604 130.477C146.728 129.376 148.039 128.522 149.537 127.913C151.059 127.304 152.709 127 154.489 127C156.244 127 157.871 127.304 159.37 127.913C160.868 128.522 162.167 129.376 163.268 130.477C164.392 131.577 165.258 132.876 165.866 134.375C166.499 135.873 166.815 137.512 166.815 139.291C166.815 141.047 166.499 142.674 165.866 144.172C165.258 145.671 164.392 146.982 163.268 148.105C162.167 149.206 160.868 150.06 159.37 150.669C157.871 151.278 156.244 151.582 154.489 151.582C152.709 151.582 151.059 151.278 149.537 150.669C148.039 150.06 146.728 149.206 145.604 148.105C144.48 146.982 143.602 145.671 142.97 144.172C142.361 142.674 142.057 141.047 142.057 139.291ZM145.639 139.291C145.639 141 146.025 142.534 146.798 143.891C147.57 145.226 148.624 146.279 149.958 147.052C151.293 147.825 152.803 148.211 154.489 148.211C156.174 148.211 157.672 147.825 158.984 147.052C160.295 146.279 161.325 145.226 162.074 143.891C162.846 142.534 163.233 141 163.233 139.291C163.233 137.559 162.846 136.025 162.074 134.691C161.325 133.356 160.295 132.303 158.984 131.53C157.672 130.758 156.174 130.371 154.489 130.371C152.803 130.371 151.293 130.758 149.958 131.53C148.624 132.303 147.57 133.356 146.798 134.691C146.025 136.025 145.639 137.559 145.639 139.291Z" fill="black"/>
<path d="M131.541 151.758C130.3 151.758 129.094 151.57 127.924 151.196C126.777 150.821 125.723 150.212 124.763 149.37C123.803 148.503 122.996 147.333 122.34 145.858L125.255 144.207C126.074 145.682 126.976 146.748 127.959 147.403C128.942 148.059 130.171 148.386 131.646 148.386C133.074 148.386 134.151 148.07 134.877 147.438C135.626 146.806 136.001 145.94 136.001 144.84C136.001 144.184 135.837 143.61 135.509 143.119C135.205 142.627 134.655 142.171 133.859 141.749C133.063 141.328 131.939 140.942 130.487 140.59C128.661 140.122 127.233 139.549 126.203 138.87C125.196 138.167 124.494 137.371 124.096 136.482C123.698 135.569 123.499 134.585 123.499 133.532C123.499 132.221 123.803 131.085 124.412 130.125C125.021 129.142 125.899 128.381 127.046 127.843C128.193 127.281 129.551 127 131.12 127C132.992 127 134.538 127.363 135.755 128.089C136.972 128.791 138.002 129.763 138.845 131.003L135.895 132.9C135.17 132.01 134.409 131.378 133.613 131.003C132.84 130.605 132.009 130.406 131.12 130.406C129.762 130.406 128.72 130.676 127.994 131.214C127.292 131.753 126.941 132.525 126.941 133.532C126.941 134.398 127.268 135.147 127.924 135.779C128.603 136.411 129.914 136.962 131.857 137.43C133.824 137.921 135.357 138.507 136.457 139.186C137.581 139.841 138.365 140.637 138.81 141.574C139.278 142.487 139.513 143.587 139.513 144.875C139.513 146.162 139.185 147.321 138.529 148.351C137.874 149.381 136.949 150.212 135.755 150.845C134.561 151.453 133.156 151.758 131.541 151.758Z" fill="black"/>
<path d="M105.554 151.231V127.316H109.066V151.231H105.554ZM90.5237 151.231V127.316H94.0354V151.231H90.5237ZM92.8414 141.187V137.886H106.607V141.187H92.8414Z" fill="black"/>
<path d="M75.7407 151.582C73.3293 151.582 71.2106 151.055 69.3845 150.002C67.5818 148.925 66.1771 147.462 65.1704 145.612C64.1637 143.739 63.6604 141.632 63.6604 139.291C63.6604 137.512 63.9647 135.873 64.5734 134.375C65.1821 132.876 66.025 131.577 67.1019 130.477C68.2022 129.376 69.4782 128.522 70.9297 127.913C72.4046 127.304 74.0083 127 75.7407 127C78.4565 127 80.6805 127.562 82.413 128.686C84.1454 129.786 85.5618 131.273 86.6622 133.146L83.2207 134.164C82.1438 132.689 80.9849 131.694 79.7441 131.179C78.5267 130.64 77.1922 130.371 75.7407 130.371C74.1253 130.371 72.6738 130.758 71.3862 131.53C70.122 132.303 69.1153 133.356 68.3661 134.691C67.6169 136.025 67.2424 137.559 67.2424 139.291C67.2424 141 67.6169 142.534 68.3661 143.891C69.1153 145.226 70.122 146.279 71.3862 147.052C72.6738 147.825 74.1253 148.211 75.7407 148.211C77.1922 148.211 78.5267 147.953 79.7441 147.438C80.9849 146.9 82.1438 145.893 83.2207 144.418L86.6622 145.437C85.5618 147.309 84.1454 148.808 82.413 149.932C80.6805 151.032 78.4565 151.582 75.7407 151.582Z" fill="black"/>
<path d="M48.9565 140.871V137.57H58.6137V140.871H48.9565ZM48.8511 130.617L49.6588 129.493V148.457L48.6755 147.895H60.6856V151.231H46.1471V127.316H60.6856V130.617H48.8511Z" fill="black"/>
<path d="M31.48 151.231V129.95H34.9917V151.231H31.48ZM24 130.617V127.316H42.8228V130.617H24Z" fill="black"/>
</svg>
