<svg width="414" height="150" viewBox="0 0 414 150" fill="none" xmlns="http://www.w3.org/2000/svg">
<path d="M413.488 96.4027H399.716V0H413.488V96.4027Z" fill="#BDFD60"/>
<path d="M289.214 96.4027H275.442V0H282.328C289.03 0 296.283 1.28537 304.087 3.85611C311.983 6.42685 319.879 10.0534 327.775 14.7358C335.671 19.4183 343.107 25.0188 350.085 31.5375C357.155 37.9643 363.214 45.1257 368.264 53.0215V0H382.036V96.4027H368.264C368.264 87.956 366.52 79.8766 363.031 72.1643C359.634 64.3603 355.089 57.199 349.397 50.6803C343.704 44.0698 337.369 38.2398 330.391 33.1901C323.506 28.0486 316.482 23.8712 309.321 20.6577C302.159 17.3525 295.457 15.2408 289.214 14.3227V96.4027Z" fill="#BDFD60"/>
<path d="M202.152 96.4027H188.38V48.2014C188.38 41.8663 186.819 36.0822 183.698 30.8489C180.668 25.6156 176.536 21.484 171.303 18.4542C166.07 15.3326 160.286 13.7718 153.951 13.7718H146.514V96.4027H132.742V0H153.951C162.673 0 170.66 2.15758 177.914 6.47275C185.259 10.7879 191.043 16.4344 195.266 23.4121C199.489 16.4344 205.228 10.7879 212.481 6.47275C219.826 2.15758 227.859 0 236.582 0H257.79V96.4027H244.018V13.7718H236.582C230.247 13.7718 224.462 15.3326 219.229 18.4542C214.088 21.484 209.956 25.6156 206.834 30.8489C203.713 36.0822 202.152 41.8663 202.152 48.2014V96.4027Z" fill="#BDFD60"/>
<path d="M120.641 48.2014C120.641 54.9037 119.585 61.1928 117.474 67.0688C115.362 72.8529 112.332 77.9485 108.384 82.3555C104.528 86.7625 99.8916 90.2054 94.4747 92.6844C89.0578 95.1633 83.0441 96.4027 76.4336 96.4027H44.3453C37.643 96.4027 31.5834 95.1633 26.1665 92.6844C20.7495 90.2054 16.0671 86.7625 12.1192 82.3555C8.26309 77.9485 5.2792 72.8529 3.16752 67.0688C1.05584 61.1928 0 54.9037 0 48.2014C0 41.5909 1.05584 35.3936 3.16752 29.6094C5.2792 23.7334 8.26309 18.592 12.1192 14.185C16.0671 9.68618 20.7495 6.19732 26.1665 3.71839C31.5834 1.23946 37.643 0 44.3453 0H76.4336C83.0441 0 89.0578 1.23946 94.4747 3.71839C99.8916 6.19732 104.528 9.68618 108.384 14.185C112.332 18.592 115.362 23.7334 117.474 29.6094C119.585 35.3936 120.641 41.5909 120.641 48.2014ZM106.869 48.2014C106.869 41.8663 105.63 36.0822 103.151 30.8489C100.764 25.6156 97.275 21.484 92.6843 18.4542C88.1856 15.3326 82.7686 13.7718 76.4336 13.7718H44.3453C38.0102 13.7718 32.5474 15.3326 27.9568 18.4542C23.458 21.484 19.9691 25.6156 17.4902 30.8489C15.0113 36.0822 13.7718 41.8663 13.7718 48.2014C13.7718 54.5364 15.0113 60.3206 17.4902 65.5539C19.9691 70.6954 23.458 74.8269 27.9568 77.9485C32.5474 81.0701 38.0102 82.6309 44.3453 82.6309H76.4336C82.7686 82.6309 88.1856 81.0701 92.6843 77.9485C97.275 74.8269 100.764 70.6954 103.151 65.5539C105.63 60.3206 106.869 54.5364 106.869 48.2014Z" fill="#BDFD60"/>
<path d="M341.368 149.758C340.127 149.758 338.922 149.571 337.751 149.196C336.604 148.821 335.55 148.213 334.591 147.37C333.631 146.504 332.823 145.333 332.167 143.858L335.082 142.208C335.902 143.683 336.803 144.748 337.786 145.403C338.77 146.059 339.999 146.387 341.474 146.387C342.902 146.387 343.979 146.071 344.704 145.438C345.454 144.806 345.828 143.94 345.828 142.84C345.828 142.184 345.664 141.611 345.337 141.119C345.032 140.627 344.482 140.171 343.686 139.749C342.89 139.328 341.766 138.942 340.315 138.59C338.489 138.122 337.061 137.549 336.03 136.87C335.024 136.167 334.321 135.371 333.923 134.482C333.525 133.569 333.326 132.585 333.326 131.532C333.326 130.221 333.631 129.085 334.239 128.125C334.848 127.142 335.726 126.381 336.873 125.843C338.02 125.281 339.378 125 340.947 125C342.82 125 344.365 125.363 345.582 126.089C346.8 126.791 347.83 127.763 348.673 129.003L345.723 130.9C344.997 130.01 344.236 129.378 343.44 129.003C342.668 128.605 341.837 128.406 340.947 128.406C339.589 128.406 338.547 128.676 337.821 129.214C337.119 129.753 336.768 130.525 336.768 131.532C336.768 132.398 337.096 133.147 337.751 133.779C338.43 134.412 339.741 134.962 341.684 135.43C343.651 135.922 345.184 136.507 346.285 137.186C347.408 137.841 348.193 138.637 348.638 139.574C349.106 140.487 349.34 141.587 349.34 142.875C349.34 144.162 349.012 145.321 348.357 146.351C347.701 147.382 346.776 148.213 345.582 148.845C344.388 149.454 342.984 149.758 341.368 149.758Z" fill="black"/>
<path d="M325.03 149.231L309.578 129.179L311.544 128.617V149.231H308.033V125.316H311.018L325.943 144.666H324.503V125.316H328.015V149.231H325.03Z" fill="black"/>
<path d="M279.249 137.291C279.249 135.512 279.553 133.873 280.162 132.375C280.794 130.876 281.672 129.577 282.796 128.477C283.92 127.376 285.231 126.522 286.729 125.913C288.251 125.304 289.901 125 291.681 125C293.437 125 295.064 125.304 296.562 125.913C298.06 126.522 299.36 127.376 300.46 128.477C301.584 129.577 302.45 130.876 303.059 132.375C303.691 133.873 304.007 135.512 304.007 137.291C304.007 139.047 303.691 140.674 303.059 142.172C302.45 143.671 301.584 144.982 300.46 146.106C299.36 147.206 298.06 148.061 296.562 148.669C295.064 149.278 293.437 149.582 291.681 149.582C289.901 149.582 288.251 149.278 286.729 148.669C285.231 148.061 283.92 147.206 282.796 146.106C281.672 144.982 280.794 143.671 280.162 142.172C279.553 140.674 279.249 139.047 279.249 137.291ZM282.831 137.291C282.831 139 283.217 140.534 283.99 141.892C284.762 143.226 285.816 144.28 287.15 145.052C288.485 145.825 289.995 146.211 291.681 146.211C293.366 146.211 294.865 145.825 296.176 145.052C297.487 144.28 298.517 143.226 299.266 141.892C300.039 140.534 300.425 139 300.425 137.291C300.425 135.559 300.039 134.025 299.266 132.691C298.517 131.356 297.487 130.303 296.176 129.53C294.865 128.758 293.366 128.371 291.681 128.371C289.995 128.371 288.485 128.758 287.15 129.53C285.816 130.303 284.762 131.356 283.99 132.691C283.217 134.025 282.831 135.559 282.831 137.291Z" fill="black"/>
<path d="M275.227 149.231H271.715V125.316H275.227V149.231Z" fill="black"/>
<path d="M257.047 149.231V127.95H260.559V149.231H257.047ZM249.567 128.617V125.316H268.39V128.617H249.567Z" fill="black"/>
<path d="M237.119 149.582C235.317 149.582 233.713 149.231 232.308 148.529C230.927 147.826 229.838 146.785 229.042 145.403C228.246 143.999 227.848 142.278 227.848 140.241V125.316H231.36V139.714C231.36 141.774 231.852 143.378 232.835 144.525C233.842 145.649 235.27 146.211 237.119 146.211C238.992 146.211 240.42 145.649 241.404 144.525C242.387 143.378 242.879 141.774 242.879 139.714V125.316H246.39V140.241C246.39 142.278 245.992 143.999 245.196 145.403C244.4 146.785 243.3 147.826 241.895 148.529C240.514 149.231 238.922 149.582 237.119 149.582Z" fill="black"/>
<path d="M224.678 149.231H210.842V125.316H214.354V146.422L213.932 145.93H224.678V149.231Z" fill="black"/>
<path d="M182.058 137.291C182.058 135.512 182.362 133.873 182.971 132.375C183.603 130.876 184.481 129.577 185.605 128.477C186.729 127.376 188.04 126.522 189.538 125.913C191.06 125.304 192.71 125 194.49 125C196.246 125 197.873 125.304 199.371 125.913C200.869 126.522 202.169 127.376 203.269 128.477C204.393 129.577 205.259 130.876 205.868 132.375C206.5 133.873 206.816 135.512 206.816 137.291C206.816 139.047 206.5 140.674 205.868 142.172C205.259 143.671 204.393 144.982 203.269 146.106C202.169 147.206 200.869 148.061 199.371 148.669C197.873 149.278 196.246 149.582 194.49 149.582C192.71 149.582 191.06 149.278 189.538 148.669C188.04 148.061 186.729 147.206 185.605 146.106C184.481 144.982 183.603 143.671 182.971 142.172C182.362 140.674 182.058 139.047 182.058 137.291ZM185.64 137.291C185.64 139 186.026 140.534 186.799 141.892C187.572 143.226 188.625 144.28 189.96 145.052C191.294 145.825 192.804 146.211 194.49 146.211C196.175 146.211 197.674 145.825 198.985 145.052C200.296 144.28 201.326 143.226 202.075 141.892C202.848 140.534 203.234 139 203.234 137.291C203.234 135.559 202.848 134.025 202.075 132.691C201.326 131.356 200.296 130.303 198.985 129.53C197.674 128.758 196.175 128.371 194.49 128.371C192.804 128.371 191.294 128.758 189.96 129.53C188.625 130.303 187.572 131.356 186.799 132.691C186.026 134.025 185.64 135.559 185.64 137.291Z" fill="black"/>
<path d="M171.542 149.758C170.301 149.758 169.096 149.571 167.925 149.196C166.778 148.821 165.724 148.213 164.764 147.37C163.805 146.504 162.997 145.333 162.341 143.858L165.256 142.208C166.075 143.683 166.977 144.748 167.96 145.403C168.943 146.059 170.173 146.387 171.647 146.387C173.076 146.387 174.153 146.071 174.878 145.438C175.627 144.806 176.002 143.94 176.002 142.84C176.002 142.184 175.838 141.611 175.51 141.119C175.206 140.627 174.656 140.171 173.86 139.749C173.064 139.328 171.94 138.942 170.489 138.59C168.662 138.122 167.234 137.549 166.204 136.87C165.198 136.167 164.495 135.371 164.097 134.482C163.699 133.569 163.5 132.585 163.5 131.532C163.5 130.221 163.805 129.085 164.413 128.125C165.022 127.142 165.9 126.381 167.047 125.843C168.194 125.281 169.552 125 171.121 125C172.994 125 174.539 125.363 175.756 126.089C176.974 126.791 178.004 127.763 178.847 129.003L175.897 130.9C175.171 130.01 174.41 129.378 173.614 129.003C172.841 128.605 172.01 128.406 171.121 128.406C169.763 128.406 168.721 128.676 167.995 129.214C167.293 129.753 166.942 130.525 166.942 131.532C166.942 132.398 167.269 133.147 167.925 133.779C168.604 134.412 169.915 134.962 171.858 135.43C173.825 135.922 175.358 136.507 176.459 137.186C177.582 137.841 178.367 138.637 178.811 139.574C179.28 140.487 179.514 141.587 179.514 142.875C179.514 144.162 179.186 145.321 178.53 146.351C177.875 147.382 176.95 148.213 175.756 148.845C174.562 149.454 173.158 149.758 171.542 149.758Z" fill="black"/>
<path d="M145.555 149.231V125.316H149.066V149.231H145.555ZM130.524 149.231V125.316H134.036V149.231H130.524ZM132.842 139.187V135.886H146.608V139.187H132.842Z" fill="black"/>
<path d="M115.741 149.582C113.33 149.582 111.211 149.056 109.385 148.002C107.582 146.925 106.178 145.462 105.171 143.612C104.164 141.739 103.661 139.632 103.661 137.291C103.661 135.512 103.965 133.873 104.574 132.375C105.183 130.876 106.025 129.577 107.102 128.477C108.203 127.376 109.479 126.522 110.93 125.913C112.405 125.304 114.009 125 115.741 125C118.457 125 120.681 125.562 122.414 126.686C124.146 127.786 125.563 129.273 126.663 131.146L123.221 132.164C122.144 130.689 120.986 129.694 119.745 129.179C118.527 128.641 117.193 128.371 115.741 128.371C114.126 128.371 112.674 128.758 111.387 129.53C110.123 130.303 109.116 131.356 108.367 132.691C107.617 134.025 107.243 135.559 107.243 137.291C107.243 139 107.617 140.534 108.367 141.892C109.116 143.226 110.123 144.28 111.387 145.052C112.674 145.825 114.126 146.211 115.741 146.211C117.193 146.211 118.527 145.953 119.745 145.438C120.986 144.9 122.144 143.893 123.221 142.418L126.663 143.437C125.563 145.31 124.146 146.808 122.414 147.932C120.681 149.032 118.457 149.582 115.741 149.582Z" fill="black"/>
<path d="M88.9567 138.871V135.57H98.6141V138.871H88.9567ZM88.8514 128.617L89.6591 127.493V146.457L88.6758 145.895H100.686V149.231H86.1473V125.316H100.686V128.617H88.8514Z" fill="black"/>
<path d="M71.48 149.231V127.95H74.9918V149.231H71.48ZM64 128.617V125.316H82.823V128.617H64Z" fill="black"/>
</svg>
